# xmcd CD database file
#
# Track frame offsets:
#	150
#	29243
#	53936
#	72781
#	96920
#	117340
#	136517
#	162288
#
# Disc length: 2461 seconds
#
# Revision: 1
# Processed by: cddbd v1.5.1PL2 Copyright (c) Steve Scherf et al.
# Submitted via: CDex 1.51
#
DISCID=6c099b08
DTITLE=Pat Coil - Just ahead
DYEAR=1992
DGENRE=Jazz
TTITLE0=Big spring
TTITLE1=Just ahead
TTITLE2=A higher road
TTITLE3=Lady J
TTITLE4=Escape clause
TTITLE5=More than the eye can see
TTITLE6=Show me
TTITLE7=Far Woody
EXTD=YEAR: 1992
EXTT0=
EXTT1=
EXTT2=
EXTT3=
EXTT4=
EXTT5=
EXTT6=
EXTT7=
PLAYORDER=
